M48
; DRILL file KiCad 10.0.4 date 2026-06-29T01:28:09
; FORMAT={-:-/ absolute / metric / decimal}
; #@! TF.CreationDate,2026-06-29T01:28:09-03:00
; #@! TF.GenerationSoftware,Kicad,Pcbnew,10.0.4
; #@! TF.FileFunction,Plated,1,2,PTH
FMAT,2
METRIC
; #@! TA.AperFunction,Plated,PTH,ViaDrill
T1C0.300
; #@! TA.AperFunction,Plated,PTH,ComponentDrill
T2C0.300
; #@! TA.AperFunction,Plated,PTH,ComponentDrill
T3C1.100
; #@! TA.AperFunction,Plated,PTH,ComponentDrill
T4C3.200
%
G90
G05
T1
X104.26Y-92.38
X107.76Y-94.13
X107.86Y-90.48
X112.51Y-92.98
X114.56Y-91.33
X116.06Y-91.33
X123.515Y-98.235
X124.95Y-88.45
X125.85Y-90.3
X126.5Y-90.3
X127.2Y-90.25
X128.0Y-88.55
X129.84Y-90.41
X131.76Y-90.11
X133.37Y-90.22
X134.96Y-90.27
X136.9Y-85.73
X139.79Y-91.87
X145.66Y-89.735
X152.79Y-85.98
X155.21Y-85.95
X157.5Y-85.99
X159.92Y-86.09
X162.26Y-86.01
X169.275Y-91.475
X170.9Y-91.45
X172.55Y-87.875
X175.425Y-98.25
X177.3Y-91.325
X177.35Y-84.65
X178.95Y-91.425
T2
X138.93Y-86.31
X138.93Y-87.61
X138.93Y-88.91
X138.93Y-90.21
X140.23Y-86.31
X140.23Y-87.61
X140.23Y-88.91
X140.23Y-90.21
T3
X96.41Y-89.102
X96.41Y-91.642
X187.672Y-89.14
X187.672Y-91.68
T4
X97.276Y-103.262
X97.283Y-81.573
X186.69Y-103.262
X186.697Y-81.573
M30
