%TF.GenerationSoftware,KiCad,Pcbnew,10.0.4*%
%TF.CreationDate,2026-06-29T01:28:07-03:00*%
%TF.ProjectId,3v3-regulator,3376332d-7265-4677-956c-61746f722e6b,1*%
%TF.SameCoordinates,Original*%
%TF.FileFunction,Soldermask,Bot*%
%TF.FilePolarity,Negative*%
%FSLAX46Y46*%
G04 Gerber Fmt 4.6, Leading zero omitted, Abs format (unit mm)*
G04 Created by KiCad (PCBNEW 10.0.4) date 2026-06-29 01:28:07*
%MOMM*%
%LPD*%
G01*
G04 APERTURE LIST*
G04 Aperture macros list*
%AMRoundRect*
0 Rectangle with rounded corners*
0 $1 Rounding radius*
0 $2 $3 $4 $5 $6 $7 $8 $9 X,Y pos of 4 corners*
0 Add a 4 corners polygon primitive as box body*
4,1,4,$2,$3,$4,$5,$6,$7,$8,$9,$2,$3,0*
0 Add four circle primitives for the rounded corners*
1,1,$1+$1,$2,$3*
1,1,$1+$1,$4,$5*
1,1,$1+$1,$6,$7*
1,1,$1+$1,$8,$9*
0 Add four rect primitives between the rounded corners*
20,1,$1+$1,$2,$3,$4,$5,0*
20,1,$1+$1,$4,$5,$6,$7,0*
20,1,$1+$1,$6,$7,$8,$9,0*
20,1,$1+$1,$8,$9,$2,$3,0*%
G04 Aperture macros list end*
%ADD10C,0.050000*%
%ADD11RoundRect,0.250001X-0.799999X0.799999X-0.799999X-0.799999X0.799999X-0.799999X0.799999X0.799999X0*%
%ADD12C,2.100000*%
%ADD13C,5.600000*%
%ADD14RoundRect,0.250001X0.799999X-0.799999X0.799999X0.799999X-0.799999X0.799999X-0.799999X-0.799999X0*%
%TA.AperFunction,Profile*%
%ADD15C,0.050000*%
%TD*%
G04 APERTURE END LIST*
D10*
X93035954Y-106555070D02*
X190992977Y-106555070D01*
X190992977Y-107555070D01*
X93035954Y-107555070D01*
X93035954Y-106555070D01*
G36*
X93035954Y-106555070D02*
G01*
X190992977Y-106555070D01*
X190992977Y-107555070D01*
X93035954Y-107555070D01*
X93035954Y-106555070D01*
G37*
X93042976Y-77280001D02*
X94042976Y-77280001D01*
X94042976Y-107560000D01*
X93042976Y-107560000D01*
X93042976Y-77280001D01*
G36*
X93042976Y-77280001D02*
G01*
X94042976Y-77280001D01*
X94042976Y-107560000D01*
X93042976Y-107560000D01*
X93042976Y-77280001D01*
G37*
X93050000Y-77275070D02*
X191000000Y-77275070D01*
X191000000Y-78275070D01*
X93050000Y-78275070D01*
X93050000Y-77275070D01*
G36*
X93050000Y-77275070D02*
G01*
X191000000Y-77275070D01*
X191000000Y-78275070D01*
X93050000Y-78275070D01*
X93050000Y-77275070D01*
G37*
X94042975Y-102550141D02*
X98042975Y-102550141D01*
X98042975Y-106550141D01*
X94042975Y-106550141D01*
X94042975Y-102550141D01*
G36*
X94042975Y-102550141D02*
G01*
X98042975Y-102550141D01*
X98042975Y-106550141D01*
X94042975Y-106550141D01*
X94042975Y-102550141D01*
G37*
X94049998Y-78275069D02*
X98049998Y-78275069D01*
X98049998Y-82275069D01*
X94049998Y-82275069D01*
X94049998Y-78275069D01*
G36*
X94049998Y-78275069D02*
G01*
X98049998Y-78275069D01*
X98049998Y-82275069D01*
X94049998Y-82275069D01*
X94049998Y-78275069D01*
G37*
X186000000Y-78260000D02*
X190000000Y-78260000D01*
X190000000Y-82260000D01*
X186000000Y-82260000D01*
X186000000Y-78260000D01*
G36*
X186000000Y-78260000D02*
G01*
X190000000Y-78260000D01*
X190000000Y-82260000D01*
X186000000Y-82260000D01*
X186000000Y-78260000D01*
G37*
X186042977Y-102550141D02*
X190042977Y-102550141D01*
X190042977Y-106550141D01*
X186042977Y-106550141D01*
X186042977Y-102550141D01*
G36*
X186042977Y-102550141D02*
G01*
X190042977Y-102550141D01*
X190042977Y-106550141D01*
X186042977Y-106550141D01*
X186042977Y-102550141D01*
G37*
X190042976Y-77280000D02*
X191042976Y-77280000D01*
X191042976Y-107560000D01*
X190042976Y-107560000D01*
X190042976Y-77280000D01*
G36*
X190042976Y-77280000D02*
G01*
X191042976Y-77280000D01*
X191042976Y-107560000D01*
X190042976Y-107560000D01*
X190042976Y-77280000D01*
G37*
D11*
%TO.C,J9*%
X187672500Y-89140000D03*
D12*
X187672500Y-91680000D03*
%TD*%
D13*
%TO.C,H1*%
X97282900Y-81572900D03*
%TD*%
%TO.C,H3*%
X97275877Y-103262170D03*
%TD*%
D14*
%TO.C,J2*%
X96410000Y-91642100D03*
D12*
X96410000Y-89102100D03*
%TD*%
D13*
%TO.C,H4*%
X186690077Y-103262170D03*
%TD*%
%TO.C,H2*%
X186697100Y-81572900D03*
%TD*%
D15*
X93000000Y-78210000D02*
G75*
G02*
X94000000Y-77210000I1000000J0D01*
G01*
X93000000Y-106590000D02*
X93000000Y-78210000D01*
X94000000Y-77210000D02*
X190060000Y-77210000D01*
X94000000Y-107590000D02*
G75*
G02*
X93000000Y-106590000I0J1000000D01*
G01*
X190060000Y-77210000D02*
G75*
G02*
X191060000Y-78210000I0J-1000000D01*
G01*
X190060000Y-107590000D02*
X94000000Y-107590000D01*
X191060000Y-78210000D02*
X191060000Y-106590000D01*
X191060000Y-106590000D02*
G75*
G02*
X190060000Y-107590000I-1000000J0D01*
G01*
M02*
