%TF.GenerationSoftware,KiCad,Pcbnew,10.0.4*%
%TF.CreationDate,2026-06-29T01:28:07-03:00*%
%TF.ProjectId,3v3-regulator,3376332d-7265-4677-956c-61746f722e6b,1*%
%TF.SameCoordinates,Original*%
%TF.FileFunction,Paste,Top*%
%TF.FilePolarity,Positive*%
%FSLAX46Y46*%
G04 Gerber Fmt 4.6, Leading zero omitted, Abs format (unit mm)*
G04 Created by KiCad (PCBNEW 10.0.4) date 2026-06-29 01:28:07*
%MOMM*%
%LPD*%
G01*
G04 APERTURE LIST*
G04 Aperture macros list*
%AMRoundRect*
0 Rectangle with rounded corners*
0 $1 Rounding radius*
0 $2 $3 $4 $5 $6 $7 $8 $9 X,Y pos of 4 corners*
0 Add a 4 corners polygon primitive as box body*
4,1,4,$2,$3,$4,$5,$6,$7,$8,$9,$2,$3,0*
0 Add four circle primitives for the rounded corners*
1,1,$1+$1,$2,$3*
1,1,$1+$1,$4,$5*
1,1,$1+$1,$6,$7*
1,1,$1+$1,$8,$9*
0 Add four rect primitives between the rounded corners*
20,1,$1+$1,$2,$3,$4,$5,0*
20,1,$1+$1,$4,$5,$6,$7,0*
20,1,$1+$1,$6,$7,$8,$9,0*
20,1,$1+$1,$8,$9,$2,$3,0*%
G04 Aperture macros list end*
%ADD10RoundRect,0.200000X0.200000X0.275000X-0.200000X0.275000X-0.200000X-0.275000X0.200000X-0.275000X0*%
%ADD11R,2.100000X1.800000*%
%ADD12RoundRect,0.250000X-0.375000X-1.075000X0.375000X-1.075000X0.375000X1.075000X-0.375000X1.075000X0*%
%ADD13RoundRect,0.225000X-0.250000X0.225000X-0.250000X-0.225000X0.250000X-0.225000X0.250000X0.225000X0*%
%ADD14RoundRect,0.218750X0.218750X0.256250X-0.218750X0.256250X-0.218750X-0.256250X0.218750X-0.256250X0*%
%ADD15RoundRect,0.250000X0.650000X-0.325000X0.650000X0.325000X-0.650000X0.325000X-0.650000X-0.325000X0*%
%ADD16RoundRect,0.200000X-0.200000X-0.275000X0.200000X-0.275000X0.200000X0.275000X-0.200000X0.275000X0*%
%ADD17R,2.600000X3.100000*%
%ADD18R,1.550000X0.600000*%
%ADD19RoundRect,0.225000X-0.225000X-0.250000X0.225000X-0.250000X0.225000X0.250000X-0.225000X0.250000X0*%
%ADD20R,0.350000X0.600000*%
%ADD21R,1.700000X1.100000*%
%ADD22R,0.600000X0.350000*%
%ADD23R,1.100000X1.700000*%
%ADD24RoundRect,0.250000X-0.650000X0.325000X-0.650000X-0.325000X0.650000X-0.325000X0.650000X0.325000X0*%
%ADD25RoundRect,0.250000X-0.375000X-0.625000X0.375000X-0.625000X0.375000X0.625000X-0.375000X0.625000X0*%
%ADD26RoundRect,0.200000X0.275000X-0.200000X0.275000X0.200000X-0.275000X0.200000X-0.275000X-0.200000X0*%
%ADD27R,5.510000X2.390000*%
%TA.AperFunction,Profile*%
%ADD28C,0.050000*%
%TD*%
G04 APERTURE END LIST*
D10*
%TO.C,R8*%
X145310000Y-91830000D03*
X143660000Y-91830000D03*
%TD*%
D11*
%TO.C,L4*%
X149040000Y-86530000D03*
X149040000Y-90430000D03*
%TD*%
D12*
%TO.C,L1*%
X116210000Y-86295000D03*
X119010000Y-86295000D03*
%TD*%
D13*
%TO.C,C22*%
X131860000Y-87785000D03*
X131860000Y-89335000D03*
%TD*%
%TO.C,C6*%
X170930000Y-88845000D03*
X170930000Y-90395000D03*
%TD*%
D14*
%TO.C,D8*%
X171305000Y-98245000D03*
X169730000Y-98245000D03*
%TD*%
%TO.C,D10*%
X173330000Y-80875000D03*
X171755000Y-80875000D03*
%TD*%
D15*
%TO.C,C38*%
X159880000Y-89895000D03*
X159880000Y-86945000D03*
%TD*%
D13*
%TO.C,C25*%
X134990000Y-87785000D03*
X134990000Y-89335000D03*
%TD*%
%TO.C,C4*%
X114530000Y-88660000D03*
X114530000Y-90210000D03*
%TD*%
D15*
%TO.C,C37*%
X157510000Y-89895000D03*
X157510000Y-86945000D03*
%TD*%
%TO.C,C34*%
X152750000Y-89895000D03*
X152750000Y-86945000D03*
%TD*%
D16*
%TO.C,R16*%
X120972500Y-98245000D03*
X122622500Y-98245000D03*
%TD*%
D17*
%TO.C,U2*%
X139580000Y-88260000D03*
D18*
X136880000Y-86355000D03*
X136880000Y-87625000D03*
X136880000Y-88895000D03*
X136880000Y-90165000D03*
X142280000Y-90165000D03*
X142280000Y-88895000D03*
X142280000Y-87625000D03*
X142280000Y-86355000D03*
%TD*%
D16*
%TO.C,R17*%
X174840000Y-80855000D03*
X176490000Y-80855000D03*
%TD*%
D13*
%TO.C,C5*%
X169330000Y-88840000D03*
X169330000Y-90390000D03*
%TD*%
D10*
%TO.C,R9*%
X142280000Y-91820000D03*
X140630000Y-91820000D03*
%TD*%
D16*
%TO.C,R15*%
X172765000Y-98245000D03*
X174415000Y-98245000D03*
%TD*%
D19*
%TO.C,C30*%
X144135000Y-87350000D03*
X145685000Y-87350000D03*
%TD*%
D13*
%TO.C,C8*%
X179000000Y-88905000D03*
X179000000Y-90455000D03*
%TD*%
D20*
%TO.C,IC1*%
X125895000Y-89455000D03*
X126545000Y-89455000D03*
X127195000Y-89455000D03*
X127195000Y-87355000D03*
X126545000Y-87355000D03*
X125895000Y-87355000D03*
D21*
X126545000Y-88405000D03*
%TD*%
D22*
%TO.C,IC2*%
X175280000Y-88525000D03*
X175280000Y-87875000D03*
X175280000Y-87225000D03*
X173180000Y-87225000D03*
X173180000Y-87875000D03*
X173180000Y-88525000D03*
D23*
X174230000Y-87875000D03*
%TD*%
D24*
%TO.C,C2*%
X112570000Y-88780000D03*
X112570000Y-91730000D03*
%TD*%
D14*
%TO.C,D9*%
X119462500Y-98225000D03*
X117887500Y-98225000D03*
%TD*%
D25*
%TO.C,F1*%
X121010000Y-86295000D03*
X123810000Y-86295000D03*
%TD*%
D19*
%TO.C,C29*%
X144120000Y-88920000D03*
X145670000Y-88920000D03*
%TD*%
D24*
%TO.C,C21*%
X129900000Y-86295000D03*
X129900000Y-89245000D03*
%TD*%
D13*
%TO.C,C3*%
X116080000Y-88660000D03*
X116080000Y-90210000D03*
%TD*%
D26*
%TO.C,R10*%
X170930000Y-87390000D03*
X170930000Y-85740000D03*
%TD*%
D15*
%TO.C,C42*%
X162260000Y-89895000D03*
X162260000Y-86945000D03*
%TD*%
D27*
%TO.C,C1*%
X107880000Y-87770000D03*
X107880000Y-92290000D03*
%TD*%
D13*
%TO.C,C7*%
X177340000Y-88855000D03*
X177340000Y-90405000D03*
%TD*%
D26*
%TO.C,R11*%
X177330000Y-87370000D03*
X177330000Y-85720000D03*
%TD*%
D13*
%TO.C,C24*%
X133410000Y-87785000D03*
X133410000Y-89335000D03*
%TD*%
D15*
%TO.C,C35*%
X155140000Y-89895000D03*
X155140000Y-86945000D03*
%TD*%
D28*
X93000000Y-78210000D02*
G75*
G02*
X94000000Y-77210000I1000000J0D01*
G01*
X93000000Y-106590000D02*
X93000000Y-78210000D01*
X94000000Y-77210000D02*
X190060000Y-77210000D01*
X94000000Y-107590000D02*
G75*
G02*
X93000000Y-106590000I0J1000000D01*
G01*
X190060000Y-77210000D02*
G75*
G02*
X191060000Y-78210000I0J-1000000D01*
G01*
X190060000Y-107590000D02*
X94000000Y-107590000D01*
X191060000Y-78210000D02*
X191060000Y-106590000D01*
X191060000Y-106590000D02*
G75*
G02*
X190060000Y-107590000I-1000000J0D01*
G01*
M02*
